<?xml version="1.0" encoding="iso-8859-1"?>
<!-- Generator: Adobe Illustrator 16.0.0, SVG Export Plug-In . SVG Version: 6.00 Build 0)  -->
<!DOCTYPE svg PUBLIC "-//W3C//DTD SVG 1.1//EN" "http://www.w3.org/Graphics/SVG/1.1/DTD/svg11.dtd">
<svg version="1.1" id="Capa_1" xmlns="http://www.w3.org/2000/svg" xmlns:xlink="http://www.w3.org/1999/xlink" x="0px" y="0px"
	 width="505.275px" height="505.275px" viewBox="0 0 505.275 505.275" style="enable-background:new 0 0 505.275 505.275;"
	 xml:space="preserve">
<g>
	<path d="M328.876,0c0,0-14.295,0-28.592,41.865c0,0-52.067,9.189-41.864,73.517c-16.333,56.151-79.636,34.712-113.334,107.205
		c-33.698,72.494-17.356,135.796-6.13,162.343c1.301,13.789-31.996,25.76-13.99,76.059c22.845,63.811,166.119,49.182,170.203,15.32
		c0,0-96.658,20.588-138.351-14.803c0,0-16.849-16.334-6.636-38.795c5.106-9.189,102.615,13.779,143.963-4.59
		c0,0,10.719-20.416-22.969-20.416c0,0,5.105-10.721,9.189-22.969c4.082-12.25,5.105,46.453,44.924,46.453
		c0,0,22.463,2.555,17.873-17.871c0,0,16.332-19.402-14.297-19.402c0,0-11.914-40.498-2.381-107.205
		c1.357-34.034,35.391-31.309,35.391-81.005s-10.213-66.708-10.213-66.708s27.779-9.352,33.689-37.265
		c0.756-3.566,0.793-15.653-7.832-15.826c0,0-14.295-29.95-42.199-29.95C335.341,45.938,340.112,6.464,328.876,0z"/>
</g>
<g>
</g>
<g>
</g>
<g>
</g>
<g>
</g>
<g>
</g>
<g>
</g>
<g>
</g>
<g>
</g>
<g>
</g>
<g>
</g>
<g>
</g>
<g>
</g>
<g>
</g>
<g>
</g>
<g>
</g>
</svg>
