<?xml version="1.0" encoding="iso-8859-1"?>
<!-- Generator: Adobe Illustrator 16.0.0, SVG Export Plug-In . SVG Version: 6.00 Build 0)  -->
<!DOCTYPE svg PUBLIC "-//W3C//DTD SVG 1.1//EN" "http://www.w3.org/Graphics/SVG/1.1/DTD/svg11.dtd">
<svg version="1.1" id="Capa_1" xmlns="http://www.w3.org/2000/svg" xmlns:xlink="http://www.w3.org/1999/xlink" x="0px" y="0px"
	 width="46.403px" height="46.403px" viewBox="0 0 46.403 46.403" style="enable-background:new 0 0 46.403 46.403;"
	 xml:space="preserve">
<g>
	<path d="M46.278,9.875c-0.386-1.053-1.555-1.589-2.605-1.206l-2.254,0.828c0.185-2.444-0.324-5.1-1.56-7.954
		c-0.446-1.03-1.642-1.505-2.671-1.058c-1.029,0.445-1.504,1.641-1.06,2.67c1.558,3.598,1.683,6.659,0.372,9.1
		c-1.365,2.546-4.055,4.11-6.276,5.021c-1.931-1.532-4.367-2.454-7.022-2.454c-2.655,0-5.093,0.922-7.022,2.454
		c-2.224-0.912-4.911-2.475-6.278-5.021c-1.31-2.441-1.185-5.502,0.372-9.1c0.445-1.029-0.029-2.225-1.059-2.67
		C8.185,0.037,6.99,0.513,6.544,1.543c-1.234,2.854-1.743,5.51-1.56,7.954L2.731,8.669C1.679,8.284,0.51,8.822,0.125,9.875
		c-0.387,1.053,0.152,2.221,1.206,2.607l5.101,1.874c0.596,1.063,1.332,1.991,2.15,2.803c-0.151-0.015-0.303-0.03-0.456-0.027
		c-3.404,0.055-6.095,4.363-6.095,4.363s2.83,4.218,6.233,4.162c1.469-0.022,2.803-0.84,3.848-1.76
		c-0.145,0.724-0.224,1.471-0.224,2.237c0,3.671,3.691,11.13,3.691,12.329c0,4.21,3.412,7.623,7.622,7.623
		c4.211,0,7.623-3.413,7.623-7.623c0-1.199,3.689-8.657,3.689-12.329c0-0.767-0.079-1.513-0.225-2.237
		c1.045,0.92,2.379,1.736,3.849,1.76c3.402,0.056,6.232-4.162,6.232-4.162s-2.689-4.308-6.095-4.363
		c-0.153-0.002-0.305,0.013-0.456,0.027c0.818-0.812,1.555-1.74,2.15-2.803l5.101-1.874C46.126,12.096,46.665,10.928,46.278,9.875z
		 M17.578,31.034c-1.189,0-2.151-0.802-2.151-2.021c0-0.42,0.12-0.938,0.319-0.938h3.663c0.199,0,0.319,0.526,0.319,0.947
		C19.728,30.241,18.765,31.034,17.578,31.034z M23.202,43.328c0,0-2.617-1.172-2.617-2.616c0-1.446,1.173-0.23,2.617-0.23
		c1.445,0,2.616-1.216,2.616,0.23C25.818,42.156,23.202,43.328,23.202,43.328z M28.825,31.034c-1.188,0-2.149-0.792-2.149-2.012
		c0-0.42,0.119-0.947,0.318-0.947h3.663c0.199,0,0.319,0.518,0.319,0.938C30.977,30.232,30.016,31.034,28.825,31.034z"/>
</g>
<g>
</g>
<g>
</g>
<g>
</g>
<g>
</g>
<g>
</g>
<g>
</g>
<g>
</g>
<g>
</g>
<g>
</g>
<g>
</g>
<g>
</g>
<g>
</g>
<g>
</g>
<g>
</g>
<g>
</g>
</svg>
